# This file uses centimeters as units for non-parametric coordinates.

mtllib hexagon.mtl
g default
v 1.737200 1.217600 -3.008900
v 3.474400 1.217600 0.000000
v 1.737200 0.092600 -3.008900
v 3.474400 0.092600 0.000000
v -1.737200 1.217600 -3.008900
v -1.737200 0.092600 -3.008900
v -3.474400 1.217600 0.000000
v -3.474400 0.092600 0.000000
v -1.737200 1.217600 3.008900
v -1.737200 0.092600 3.008900
v 1.737200 1.217600 3.008900
v 1.737200 0.092600 3.008900
v 3.474400 13.432300 0.000000
v 1.737200 13.432300 -3.008900
v 0.000000 13.432300 0.000000
v -1.737200 13.432300 -3.008900
v -3.474400 13.432300 0.000000
v -1.737200 13.432300 3.008900
v 1.737200 13.432300 3.008900
v 1.737200 0.000000 -3.008900
v 3.474400 0.000000 0.000000
v 0.000000 0.000000 0.000000
v -1.737200 0.000000 -3.008900
v -3.474400 0.000000 0.000000
v -1.737200 0.000000 3.008900
v 1.737200 0.000000 3.008900
v 1.737200 6.889400 -3.008900
v 3.474400 6.889400 0.000000
v 1.737200 5.757100 -3.008900
v 3.474400 5.757100 0.000000
v 1.737200 6.889400 3.008900
v 1.737200 5.757100 3.008900
v -1.737200 6.889400 3.008900
v -1.737200 5.757100 3.008900
v -3.474400 6.889400 0.000000
v -3.474400 5.757100 0.000000
v -1.737200 6.889400 -3.008900
v -1.737200 5.757100 -3.008900
v -1.737200 11.810000 -3.008900
v 1.737200 11.810000 -3.008900
v -1.737200 10.568200 -3.008900
v 1.737200 10.568200 -3.008900
v 3.474400 11.810000 0.000000
v 3.474400 10.568200 0.000000
v 1.737200 11.810000 3.008900
v 1.737200 10.568200 3.008900
v -1.737200 11.810000 3.008900
v -1.737200 10.568200 3.008900
v -3.474400 11.810000 0.000000
v -3.474400 10.568200 0.000000
v -1.737200 9.248700 -3.008900
v 1.737200 9.248700 -3.008900
v -1.737200 8.244600 -3.008900
v 1.737200 8.244600 -3.008900
v 3.474400 9.248700 0.000000
v 3.474400 8.244600 0.000000
v 1.737200 9.248700 3.008900
v 1.737200 8.244600 3.008900
v -1.737200 9.248700 3.008900
v -1.737200 8.244600 3.008900
v -3.474400 9.248700 0.000000
v -3.474400 8.244600 0.000000
v -1.737200 4.393600 -3.008900
v 1.737200 4.393600 -3.008900
v -1.737200 2.906100 -3.008900
v 1.737200 2.906100 -3.008900
v 3.474400 4.393600 0.000000
v 3.474400 2.906100 0.000000
v 1.737200 4.393600 3.008900
v 1.737200 2.906100 3.008900
v -1.737200 4.393600 3.008900
v -1.737200 2.906100 3.008900
v -3.474400 4.393600 0.000000
v -3.474400 2.906100 0.000000
v 1.737200 13.223500 -3.008900
v 3.474400 13.223500 0.000000
v 1.737200 13.223500 3.008900
v -1.737200 13.223500 3.008900
v -3.474400 13.223500 0.000000
v -1.737200 13.223500 -3.008900
vt 0.474800 0.237500
vt 0.356900 0.237700
vt 0.474800 0.183000
vt 0.356800 0.183200
vt 0.592500 0.237300
vt 0.592400 0.182800
vt 0.709800 0.237200
vt 0.709700 0.182700
vt 0.122000 0.238100
vt 0.004500 0.238300
vt 0.121900 0.183700
vt 0.004500 0.183900
vt 0.239300 0.237900
vt 0.239300 0.183400
vt 0.929800 0.545800
vt 0.987500 0.688000
vt 0.872400 0.688000
vt 0.929800 0.830400
vt 0.814000 0.830400
vt 0.755700 0.688000
vt 0.814000 0.545800
vt 0.987500 0.323100
vt 0.929800 0.465500
vt 0.872400 0.323100
vt 0.929800 0.180900
vt 0.814000 0.180900
vt 0.755700 0.323100
vt 0.814000 0.465500
vt 0.475000 0.512000
vt 0.357000 0.512200
vt 0.474900 0.457200
vt 0.357000 0.457400
vt 0.239300 0.512300
vt 0.239300 0.457500
vt 0.122100 0.512500
vt 0.122100 0.457700
vt 0.004600 0.512700
vt 0.004600 0.457900
vt 0.709800 0.511700
vt 0.592600 0.511800
vt 0.709800 0.456900
vt 0.592600 0.457000
vt 0.592700 0.749900
vt 0.475100 0.750100
vt 0.592700 0.689800
vt 0.475000 0.690000
vt 0.357100 0.750300
vt 0.357100 0.690200
vt 0.239300 0.750500
vt 0.239300 0.690400
vt 0.122300 0.750700
vt 0.122200 0.690600
vt 0.004700 0.750900
vt 0.004700 0.690800
vt 0.709900 0.749700
vt 0.709900 0.689600
vt 0.592600 0.626000
vt 0.475000 0.626200
vt 0.592600 0.577400
vt 0.475000 0.577600
vt 0.357100 0.626300
vt 0.357000 0.577700
vt 0.239300 0.626500
vt 0.239300 0.577900
vt 0.122200 0.626700
vt 0.122100 0.578100
vt 0.004700 0.626900
vt 0.004600 0.578300
vt 0.709900 0.625800
vt 0.709900 0.577200
vt 0.592500 0.391000
vt 0.474900 0.391200
vt 0.592500 0.319000
vt 0.474900 0.319200
vt 0.357000 0.391400
vt 0.356900 0.319400
vt 0.239300 0.391600
vt 0.239300 0.319600
vt 0.122100 0.391700
vt 0.122000 0.319800
vt 0.004600 0.391900
vt 0.004600 0.320000
vt 0.709800 0.390900
vt 0.709800 0.318900
vt 0.475100 0.828700
vt 0.357100 0.828800
vt 0.475100 0.818600
vt 0.357100 0.818700
vt 0.239300 0.828900
vt 0.239300 0.818800
vt 0.122300 0.829200
vt 0.122300 0.819100
vt 0.004800 0.829400
vt 0.004800 0.819300
vt 0.710000 0.828200
vt 0.592800 0.828500
vt 0.710000 0.818100
vt 0.592800 0.818400
vt 0.474800 0.178500
vt 0.356800 0.178700
vt 0.592400 0.178300
vt 0.709700 0.178200
vt 0.121900 0.179200
vt 0.004500 0.179400
vt 0.239300 0.178900
vn 0.866019 0.000000 -0.500011
vn 0.866019 0.000000 -0.500011
vn 0.866019 0.000000 -0.500011
vn 0.866019 0.000000 -0.500011
vn 0.866019 0.000000 -0.500011
vn 0.866019 0.000000 -0.500011
vn 0.000000 0.000000 -1.000000
vn 0.000000 0.000000 -1.000000
vn 0.000000 0.000000 -1.000000
vn 0.000000 0.000000 -1.000000
vn 0.000000 0.000000 -1.000000
vn 0.000000 0.000000 -1.000000
vn -0.866019 0.000000 -0.500011
vn -0.866019 0.000000 -0.500011
vn -0.866019 0.000000 -0.500011
vn -0.866019 0.000000 -0.500011
vn -0.866019 0.000000 -0.500011
vn -0.866019 0.000000 -0.500011
vn -0.866019 0.000000 0.500011
vn -0.866019 0.000000 0.500011
vn -0.866019 0.000000 0.500011
vn -0.866019 0.000000 0.500011
vn -0.866019 0.000000 0.500011
vn -0.866019 0.000000 0.500011
vn 0.000000 0.000000 1.000000
vn 0.000000 0.000000 1.000000
vn 0.000000 0.000000 1.000000
vn 0.000000 0.000000 1.000000
vn 0.000000 0.000000 1.000000
vn 0.000000 0.000000 1.000000
vn 0.866019 0.000000 0.500011
vn 0.866019 0.000000 0.500011
vn 0.866019 0.000000 0.500011
vn 0.866019 0.000000 0.500011
vn 0.866019 0.000000 0.500011
vn 0.866019 0.000000 0.500011
vn 0.000000 1.000000 0.000000
vn 0.000000 1.000000 0.000000
vn 0.000000 1.000000 0.000000
vn 0.000000 1.000000 0.000000
vn 0.000000 1.000000 0.000000
vn 0.000000 1.000000 0.000000
vn 0.000000 1.000000 0.000000
vn 0.000000 1.000000 0.000000
vn 0.000000 1.000000 0.000000
vn 0.000000 1.000000 0.000000
vn 0.000000 1.000000 0.000000
vn 0.000000 1.000000 0.000000
vn 0.000000 1.000000 0.000000
vn 0.000000 1.000000 0.000000
vn 0.000000 1.000000 0.000000
vn 0.000000 1.000000 0.000000
vn 0.000000 1.000000 0.000000
vn 0.000000 1.000000 0.000000
vn 0.000000 -1.000000 0.000000
vn 0.000000 -1.000000 0.000000
vn 0.000000 -1.000000 0.000000
vn 0.000000 -1.000000 0.000000
vn 0.000000 -1.000000 0.000000
vn 0.000000 -1.000000 0.000000
vn 0.000000 -1.000000 0.000000
vn 0.000000 -1.000000 0.000000
vn 0.000000 -1.000000 0.000000
vn 0.000000 -1.000000 0.000000
vn 0.000000 -1.000000 0.000000
vn 0.000000 -1.000000 0.000000
vn 0.000000 -1.000000 0.000000
vn 0.000000 -1.000000 0.000000
vn 0.000000 -1.000000 0.000000
vn 0.000000 -1.000000 0.000000
vn 0.000000 -1.000000 0.000000
vn 0.000000 -1.000000 0.000000
vn 0.866019 0.000000 -0.500011
vn 0.866019 0.000000 -0.500011
vn 0.866019 0.000000 -0.500011
vn 0.866019 0.000000 -0.500011
vn 0.866019 0.000000 -0.500011
vn 0.866019 0.000000 -0.500011
vn 0.866019 0.000000 0.500011
vn 0.866019 0.000000 0.500011
vn 0.866019 0.000000 0.500011
vn 0.866019 0.000000 0.500011
vn 0.866019 0.000000 0.500011
vn 0.866019 0.000000 0.500011
vn 0.000000 0.000000 1.000000
vn 0.000000 0.000000 1.000000
vn 0.000000 0.000000 1.000000
vn 0.000000 0.000000 1.000000
vn 0.000000 0.000000 1.000000
vn 0.000000 0.000000 1.000000
vn -0.866019 0.000000 0.500011
vn -0.866019 0.000000 0.500011
vn -0.866019 0.000000 0.500011
vn -0.866019 0.000000 0.500011
vn -0.866019 0.000000 0.500011
vn -0.866019 0.000000 0.500011
vn -0.866019 0.000000 -0.500011
vn -0.866019 0.000000 -0.500011
vn -0.866019 0.000000 -0.500011
vn -0.866019 0.000000 -0.500011
vn -0.866019 0.000000 -0.500011
vn -0.866019 0.000000 -0.500011
vn 0.000000 0.000000 -1.000000
vn 0.000000 0.000000 -1.000000
vn 0.000000 0.000000 -1.000000
vn 0.000000 0.000000 -1.000000
vn 0.000000 0.000000 -1.000000
vn 0.000000 0.000000 -1.000000
vn 0.000000 0.000000 -1.000000
vn 0.000000 0.000000 -1.000000
vn 0.000000 0.000000 -1.000000
vn 0.000000 0.000000 -1.000000
vn 0.000000 0.000000 -1.000000
vn 0.000000 0.000000 -1.000000
vn 0.866019 0.000000 -0.500011
vn 0.866019 0.000000 -0.500011
vn 0.866019 0.000000 -0.500011
vn 0.866019 0.000000 -0.500011
vn 0.866019 0.000000 -0.500011
vn 0.866019 0.000000 -0.500011
vn 0.866019 0.000000 0.500011
vn 0.866019 0.000000 0.500011
vn 0.866019 0.000000 0.500011
vn 0.866019 0.000000 0.500011
vn 0.866019 0.000000 0.500011
vn 0.866019 0.000000 0.500011
vn 0.000000 0.000000 1.000000
vn 0.000000 0.000000 1.000000
vn 0.000000 0.000000 1.000000
vn 0.000000 0.000000 1.000000
vn 0.000000 0.000000 1.000000
vn 0.000000 0.000000 1.000000
vn -0.866019 0.000000 0.500011
vn -0.866019 0.000000 0.500011
vn -0.866019 0.000000 0.500011
vn -0.866019 0.000000 0.500011
vn -0.866019 0.000000 0.500011
vn -0.866019 0.000000 0.500011
vn -0.866019 0.000000 -0.500011
vn -0.866019 0.000000 -0.500011
vn -0.866019 0.000000 -0.500011
vn -0.866019 0.000000 -0.500011
vn -0.866019 0.000000 -0.500011
vn -0.866019 0.000000 -0.500011
vn 0.000000 0.000000 -1.000000
vn 0.000000 0.000000 -1.000000
vn 0.000000 0.000000 -1.000000
vn 0.000000 0.000000 -1.000000
vn 0.000000 0.000000 -1.000000
vn 0.000000 0.000000 -1.000000
vn 0.866019 0.000000 -0.500011
vn 0.866019 0.000000 -0.500011
vn 0.866019 0.000000 -0.500011
vn 0.866019 0.000000 -0.500011
vn 0.866019 0.000000 -0.500011
vn 0.866019 0.000000 -0.500011
vn 0.866019 0.000000 0.500011
vn 0.866019 0.000000 0.500011
vn 0.866019 0.000000 0.500011
vn 0.866019 0.000000 0.500011
vn 0.866019 0.000000 0.500011
vn 0.866019 0.000000 0.500011
vn 0.000000 0.000000 1.000000
vn 0.000000 0.000000 1.000000
vn 0.000000 0.000000 1.000000
vn 0.000000 0.000000 1.000000
vn 0.000000 0.000000 1.000000
vn 0.000000 0.000000 1.000000
vn -0.866019 0.000000 0.500011
vn -0.866019 0.000000 0.500011
vn -0.866019 0.000000 0.500011
vn -0.866019 0.000000 0.500011
vn -0.866019 0.000000 0.500011
vn -0.866019 0.000000 0.500011
vn -0.866019 0.000000 -0.500011
vn -0.866019 0.000000 -0.500011
vn -0.866019 0.000000 -0.500011
vn -0.866019 0.000000 -0.500011
vn -0.866019 0.000000 -0.500011
vn -0.866019 0.000000 -0.500011
vn 0.000000 0.000000 -1.000000
vn 0.000000 0.000000 -1.000000
vn 0.000000 0.000000 -1.000000
vn 0.000000 0.000000 -1.000000
vn 0.000000 0.000000 -1.000000
vn 0.000000 0.000000 -1.000000
vn 0.866019 0.000000 -0.500011
vn 0.866019 0.000000 -0.500011
vn 0.866019 0.000000 -0.500011
vn 0.866019 0.000000 -0.500011
vn 0.866019 0.000000 -0.500011
vn 0.866019 0.000000 -0.500011
vn 0.866019 0.000000 0.500011
vn 0.866019 0.000000 0.500011
vn 0.866019 0.000000 0.500011
vn 0.866019 0.000000 0.500011
vn 0.866019 0.000000 0.500011
vn 0.866019 0.000000 0.500011
vn 0.000000 0.000000 1.000000
vn 0.000000 0.000000 1.000000
vn 0.000000 0.000000 1.000000
vn 0.000000 0.000000 1.000000
vn 0.000000 0.000000 1.000000
vn 0.000000 0.000000 1.000000
vn -0.866019 0.000000 0.500011
vn -0.866019 0.000000 0.500011
vn -0.866019 0.000000 0.500011
vn -0.866019 0.000000 0.500011
vn -0.866019 0.000000 0.500011
vn -0.866019 0.000000 0.500011
vn -0.866019 0.000000 -0.500011
vn -0.866019 0.000000 -0.500011
vn -0.866019 0.000000 -0.500011
vn -0.866019 0.000000 -0.500011
vn -0.866019 0.000000 -0.500011
vn -0.866019 0.000000 -0.500011
vn 0.000000 0.000000 -1.000000
vn 0.000000 0.000000 -1.000000
vn 0.000000 0.000000 -1.000000
vn 0.000000 0.000000 -1.000000
vn 0.000000 0.000000 -1.000000
vn 0.000000 0.000000 -1.000000
vn 0.866019 0.000000 -0.500011
vn 0.866019 0.000000 -0.500011
vn 0.866019 0.000000 -0.500011
vn 0.866019 0.000000 -0.500011
vn 0.866019 0.000000 -0.500011
vn 0.866019 0.000000 -0.500011
vn 0.866019 0.000000 0.500011
vn 0.866019 0.000000 0.500011
vn 0.866019 0.000000 0.500011
vn 0.866019 0.000000 0.500011
vn 0.866019 0.000000 0.500011
vn 0.866019 0.000000 0.500011
vn 0.000000 0.000000 1.000000
vn 0.000000 0.000000 1.000000
vn 0.000000 0.000000 1.000000
vn 0.000000 0.000000 1.000000
vn 0.000000 0.000000 1.000000
vn 0.000000 0.000000 1.000000
vn -0.866019 0.000000 0.500011
vn -0.866019 0.000000 0.500011
vn -0.866019 0.000000 0.500011
vn -0.866019 0.000000 0.500011
vn -0.866019 0.000000 0.500011
vn -0.866019 0.000000 0.500011
vn -0.866019 0.000000 -0.500011
vn -0.866019 0.000000 -0.500011
vn -0.866019 0.000000 -0.500011
vn -0.866019 0.000000 -0.500011
vn -0.866019 0.000000 -0.500011
vn -0.866019 0.000000 -0.500011
vn 0.866019 0.000000 -0.500011
vn 0.866019 0.000000 -0.500011
vn 0.866019 0.000000 -0.500011
vn 0.866019 0.000000 -0.500011
vn 0.866019 0.000000 -0.500011
vn 0.866019 0.000000 -0.500011
vn 0.866019 0.000000 0.500011
vn 0.866019 0.000000 0.500011
vn 0.866019 0.000000 0.500011
vn 0.866019 0.000000 0.500011
vn 0.866019 0.000000 0.500011
vn 0.866019 0.000000 0.500011
vn 0.000000 0.000000 1.000000
vn 0.000000 0.000000 1.000000
vn 0.000000 0.000000 1.000000
vn 0.000000 0.000000 1.000000
vn 0.000000 0.000000 1.000000
vn 0.000000 0.000000 1.000000
vn -0.866019 0.000000 0.500011
vn -0.866019 0.000000 0.500011
vn -0.866019 0.000000 0.500011
vn -0.866019 0.000000 0.500011
vn -0.866019 0.000000 0.500011
vn -0.866019 0.000000 0.500011
vn -0.866019 0.000000 -0.500011
vn -0.866019 0.000000 -0.500011
vn -0.866019 0.000000 -0.500011
vn -0.866019 0.000000 -0.500011
vn -0.866019 0.000000 -0.500011
vn -0.866019 0.000000 -0.500011
vn 0.000000 0.000000 -1.000000
vn 0.000000 0.000000 -1.000000
vn 0.000000 0.000000 -1.000000
vn 0.000000 0.000000 -1.000000
vn 0.000000 0.000000 -1.000000
vn 0.000000 0.000000 -1.000000
vn 0.866019 0.000000 -0.500011
vn 0.866019 0.000000 -0.500011
vn 0.866019 0.000000 -0.500011
vn 0.866019 0.000000 -0.500011
vn 0.866019 0.000000 -0.500011
vn 0.866019 0.000000 -0.500011
vn 0.866019 0.000000 0.500011
vn 0.866019 0.000000 0.500011
vn 0.866019 0.000000 0.500011
vn 0.866019 0.000000 0.500011
vn 0.866019 0.000000 0.500011
vn 0.866019 0.000000 0.500011
vn 0.000000 0.000000 1.000000
vn 0.000000 0.000000 1.000000
vn 0.000000 0.000000 1.000000
vn 0.000000 0.000000 1.000000
vn 0.000000 0.000000 1.000000
vn 0.000000 0.000000 1.000000
vn -0.866019 0.000000 0.500011
vn -0.866019 0.000000 0.500011
vn -0.866019 0.000000 0.500011
vn -0.866019 0.000000 0.500011
vn -0.866019 0.000000 0.500011
vn -0.866019 0.000000 0.500011
vn -0.866019 0.000000 -0.500011
vn -0.866019 0.000000 -0.500011
vn -0.866019 0.000000 -0.500011
vn -0.866019 0.000000 -0.500011
vn -0.866019 0.000000 -0.500011
vn -0.866019 0.000000 -0.500011
vn 0.000000 0.000000 -1.000000
vn 0.000000 0.000000 -1.000000
vn 0.000000 0.000000 -1.000000
vn 0.000000 0.000000 -1.000000
vn 0.000000 0.000000 -1.000000
vn 0.000000 0.000000 -1.000000
vn 0.866019 0.000000 -0.500011
vn 0.866019 0.000000 -0.500011
vn 0.866019 0.000000 -0.500011
vn 0.866019 0.000000 -0.500011
vn 0.866019 0.000000 -0.500011
vn 0.866019 0.000000 -0.500011
vn 0.866019 0.000000 0.500011
vn 0.866019 0.000000 0.500011
vn 0.866019 0.000000 0.500011
vn 0.866019 0.000000 0.500011
vn 0.866019 0.000000 0.500011
vn 0.866019 0.000000 0.500011
vn 0.000000 0.000000 1.000000
vn 0.000000 0.000000 1.000000
vn 0.000000 0.000000 1.000000
vn 0.000000 0.000000 1.000000
vn 0.000000 0.000000 1.000000
vn 0.000000 0.000000 1.000000
vn -0.866019 0.000000 0.500011
vn -0.866019 0.000000 0.500011
vn -0.866019 0.000000 0.500011
vn -0.866019 0.000000 0.500011
vn -0.866019 0.000000 0.500011
vn -0.866019 0.000000 0.500011
vn -0.866019 0.000000 -0.500011
vn -0.866019 0.000000 -0.500011
vn -0.866019 0.000000 -0.500011
vn -0.866019 0.000000 -0.500011
vn -0.866019 0.000000 -0.500011
vn -0.866019 0.000000 -0.500011
vn 0.000000 0.000000 -1.000000
vn 0.000000 0.000000 -1.000000
vn 0.000000 0.000000 -1.000000
vn 0.000000 0.000000 -1.000000
vn 0.000000 0.000000 -1.000000
vn 0.000000 0.000000 -1.000000
vn 0.866019 0.000000 -0.500011
vn 0.866019 0.000000 -0.500011
vn 0.866019 0.000000 -0.500011
vn 0.866019 0.000000 -0.500011
vn 0.866019 0.000000 -0.500011
vn 0.866019 0.000000 -0.500011
vn 0.866019 0.000000 0.500011
vn 0.866019 0.000000 0.500011
vn 0.866019 0.000000 0.500011
vn 0.866019 0.000000 0.500011
vn 0.866019 0.000000 0.500011
vn 0.866019 0.000000 0.500011
vn 0.000000 0.000000 1.000000
vn 0.000000 0.000000 1.000000
vn 0.000000 0.000000 1.000000
vn 0.000000 0.000000 1.000000
vn 0.000000 0.000000 1.000000
vn 0.000000 0.000000 1.000000
vn -0.866019 0.000000 0.500011
vn -0.866019 0.000000 0.500011
vn -0.866019 0.000000 0.500011
vn -0.866019 0.000000 0.500011
vn -0.866019 0.000000 0.500011
vn -0.866019 0.000000 0.500011
vn -0.866019 0.000000 -0.500011
vn -0.866019 0.000000 -0.500011
vn -0.866019 0.000000 -0.500011
vn -0.866019 0.000000 -0.500011
vn -0.866019 0.000000 -0.500011
vn -0.866019 0.000000 -0.500011
vn 0.000000 0.000000 -1.000000
vn 0.000000 0.000000 -1.000000
vn 0.000000 0.000000 -1.000000
vn 0.000000 0.000000 -1.000000
vn 0.000000 0.000000 -1.000000
vn 0.000000 0.000000 -1.000000
vn 0.866019 0.000000 -0.500011
vn 0.866019 0.000000 -0.500011
vn 0.866019 0.000000 -0.500011
vn 0.866019 0.000000 -0.500011
vn 0.866019 0.000000 -0.500011
vn 0.866019 0.000000 -0.500011
vn 0.000000 0.000000 -1.000000
vn 0.000000 0.000000 -1.000000
vn 0.000000 0.000000 -1.000000
vn 0.000000 0.000000 -1.000000
vn 0.000000 0.000000 -1.000000
vn 0.000000 0.000000 -1.000000
vn -0.866019 0.000000 -0.500011
vn -0.866019 0.000000 -0.500011
vn -0.866019 0.000000 -0.500011
vn -0.866019 0.000000 -0.500011
vn -0.866019 0.000000 -0.500011
vn -0.866019 0.000000 -0.500011
vn -0.866019 0.000000 0.500011
vn -0.866019 0.000000 0.500011
vn -0.866019 0.000000 0.500011
vn -0.866019 0.000000 0.500011
vn -0.866019 0.000000 0.500011
vn -0.866019 0.000000 0.500011
vn 0.000000 0.000000 1.000000
vn 0.000000 0.000000 1.000000
vn 0.000000 0.000000 1.000000
vn 0.000000 0.000000 1.000000
vn 0.000000 0.000000 1.000000
vn 0.000000 0.000000 1.000000
vn 0.866019 0.000000 0.500011
vn 0.866019 0.000000 0.500011
vn 0.866019 0.000000 0.500011
vn 0.866019 0.000000 0.500011
vn 0.866019 0.000000 0.500011
vn 0.866019 0.000000 0.500011
vn 0.866019 0.000000 -0.500011
vn 0.866019 0.000000 -0.500011
vn 0.866019 0.000000 -0.500011
vn 0.866019 0.000000 -0.500011
vn 0.866019 0.000000 -0.500011
vn 0.866019 0.000000 -0.500011
vn 0.000000 0.000000 -1.000000
vn 0.000000 0.000000 -1.000000
vn 0.000000 0.000000 -1.000000
vn 0.000000 0.000000 -1.000000
vn 0.000000 0.000000 -1.000000
vn 0.000000 0.000000 -1.000000
vn -0.866019 0.000000 -0.500011
vn -0.866019 0.000000 -0.500011
vn -0.866019 0.000000 -0.500011
vn -0.866019 0.000000 -0.500011
vn -0.866019 0.000000 -0.500011
vn -0.866019 0.000000 -0.500011
vn -0.866019 0.000000 0.500011
vn -0.866019 0.000000 0.500011
vn -0.866019 0.000000 0.500011
vn -0.866019 0.000000 0.500011
vn -0.866019 0.000000 0.500011
vn -0.866019 0.000000 0.500011
vn 0.000000 0.000000 1.000000
vn 0.000000 0.000000 1.000000
vn 0.000000 0.000000 1.000000
vn 0.000000 0.000000 1.000000
vn 0.000000 0.000000 1.000000
vn 0.000000 0.000000 1.000000
vn 0.866019 0.000000 0.500011
vn 0.866019 0.000000 0.500011
vn 0.866019 0.000000 0.500011
vn 0.866019 0.000000 0.500011
vn 0.866019 0.000000 0.500011
vn 0.866019 0.000000 0.500011
s off
g hexagon:hexagon
usemtl hexagon:Material__26
f 1/1/1 2/2/2 3/3/3
f 3/3/4 2/2/5 4/4/6
f 5/5/7 1/1/8 6/6/9
f 6/6/10 1/1/11 3/3/12
f 7/7/13 5/5/14 8/8/15
f 8/8/16 5/5/17 6/6/18
f 9/9/19 7/10/20 10/11/21
f 10/11/22 7/10/23 8/12/24
f 11/13/25 9/9/26 12/14/27
f 12/14/28 9/9/29 10/11/30
f 2/2/31 11/13/32 4/4/33
f 4/4/34 11/13/35 12/14/36
f 13/15/37 14/16/38 15/17/39
f 14/16/40 16/18/41 15/17/42
f 16/18/43 17/19/44 15/17/45
f 17/19/46 18/20/47 15/17/48
f 18/20/49 19/21/50 15/17/51
f 19/21/52 13/15/53 15/17/54
f 20/22/55 21/23/56 22/24/57
f 23/25/58 20/22/59 22/24/60
f 24/26/61 23/25/62 22/24/63
f 25/27/64 24/26/65 22/24/66
f 26/28/67 25/27/68 22/24/69
f 21/23/70 26/28/71 22/24/72
f 27/29/73 28/30/74 29/31/75
f 29/31/76 28/30/77 30/32/78
f 28/30/79 31/33/80 30/32/81
f 30/32/82 31/33/83 32/34/84
f 31/33/85 33/35/86 32/34/87
f 32/34/88 33/35/89 34/36/90
f 33/35/91 35/37/92 34/36/93
f 34/36/94 35/37/95 36/38/96
f 35/39/97 37/40/98 36/41/99
f 36/41/100 37/40/101 38/42/102
f 37/40/103 27/29/104 38/42/105
f 38/42/106 27/29/107 29/31/108
f 39/43/109 40/44/110 41/45/111
f 41/45/112 40/44/113 42/46/114
f 40/44/115 43/47/116 42/46/117
f 42/46/118 43/47/119 44/48/120
f 43/47/121 45/49/122 44/48/123
f 44/48/124 45/49/125 46/50/126
f 45/49/127 47/51/128 46/50/129
f 46/50/130 47/51/131 48/52/132
f 47/51/133 49/53/134 48/52/135
f 48/52/136 49/53/137 50/54/138
f 49/55/139 39/43/140 50/56/141
f 50/56/142 39/43/143 41/45/144
f 51/57/145 52/58/146 53/59/147
f 53/59/148 52/58/149 54/60/150
f 52/58/151 55/61/152 54/60/153
f 54/60/154 55/61/155 56/62/156
f 55/61/157 57/63/158 56/62/159
f 56/62/160 57/63/161 58/64/162
f 57/63/163 59/65/164 58/64/165
f 58/64/166 59/65/167 60/66/168
f 59/65/169 61/67/170 60/66/171
f 60/66/172 61/67/173 62/68/174
f 61/69/175 51/57/176 62/70/177
f 62/70/178 51/57/179 53/59/180
f 63/71/181 64/72/182 65/73/183
f 65/73/184 64/72/185 66/74/186
f 64/72/187 67/75/188 66/74/189
f 66/74/190 67/75/191 68/76/192
f 67/75/193 69/77/194 68/76/195
f 68/76/196 69/77/197 70/78/198
f 69/77/199 71/79/200 70/78/201
f 70/78/202 71/79/203 72/80/204
f 71/79/205 73/81/206 72/80/207
f 72/80/208 73/81/209 74/82/210
f 73/83/211 63/71/212 74/84/213
f 74/84/214 63/71/215 65/73/216
f 65/73/217 66/74/218 5/5/219
f 5/5/220 66/74/221 1/1/222
f 66/74/223 68/76/224 1/1/225
f 1/1/226 68/76/227 2/2/228
f 68/76/229 70/78/230 2/2/231
f 2/2/232 70/78/233 11/13/234
f 70/78/235 72/80/236 11/13/237
f 11/13/238 72/80/239 9/9/240
f 72/80/241 74/82/242 9/9/243
f 9/9/244 74/82/245 7/10/246
f 74/84/247 65/73/248 7/7/249
f 7/7/250 65/73/251 5/5/252
f 29/31/253 30/32/254 64/72/255
f 64/72/256 30/32/257 67/75/258
f 30/32/259 32/34/260 67/75/261
f 67/75/262 32/34/263 69/77/264
f 32/34/265 34/36/266 69/77/267
f 69/77/268 34/36/269 71/79/270
f 34/36/271 36/38/272 71/79/273
f 71/79/274 36/38/275 73/81/276
f 36/41/277 38/42/278 73/83/279
f 73/83/280 38/42/281 63/71/282
f 38/42/283 29/31/284 63/71/285
f 63/71/286 29/31/287 64/72/288
f 54/60/289 56/62/290 27/29/291
f 27/29/292 56/62/293 28/30/294
f 56/62/295 58/64/296 28/30/297
f 28/30/298 58/64/299 31/33/300
f 58/64/301 60/66/302 31/33/303
f 31/33/304 60/66/305 33/35/306
f 60/66/307 62/68/308 33/35/309
f 33/35/310 62/68/311 35/37/312
f 62/70/313 53/59/314 35/39/315
f 35/39/316 53/59/317 37/40/318
f 53/59/319 54/60/320 37/40/321
f 37/40/322 54/60/323 27/29/324
f 42/46/325 44/48/326 52/58/327
f 52/58/328 44/48/329 55/61/330
f 44/48/331 46/50/332 55/61/333
f 55/61/334 46/50/335 57/63/336
f 46/50/337 48/52/338 57/63/339
f 57/63/340 48/52/341 59/65/342
f 48/52/343 50/54/344 59/65/345
f 59/65/346 50/54/347 61/67/348
f 50/56/349 41/45/350 61/69/351
f 61/69/352 41/45/353 51/57/354
f 41/45/355 42/46/356 51/57/357
f 51/57/358 42/46/359 52/58/360
f 14/85/361 13/86/362 75/87/363
f 75/87/364 13/86/365 76/88/366
f 13/86/367 19/89/368 76/88/369
f 76/88/370 19/89/371 77/90/372
f 19/89/373 18/91/374 77/90/375
f 77/90/376 18/91/377 78/92/378
f 18/91/379 17/93/380 78/92/381
f 78/92/382 17/93/383 79/94/384
f 17/95/385 16/96/386 79/97/387
f 79/97/388 16/96/389 80/98/390
f 16/96/391 14/85/392 80/98/393
f 80/98/394 14/85/395 75/87/396
f 75/87/397 76/88/398 40/44/399
f 40/44/400 76/88/401 43/47/402
f 80/98/403 75/87/404 39/43/405
f 39/43/406 75/87/407 40/44/408
f 79/97/409 80/98/410 49/55/411
f 49/55/412 80/98/413 39/43/414
f 78/92/415 79/94/416 47/51/417
f 47/51/418 79/94/419 49/53/420
f 77/90/421 78/92/422 45/49/423
f 45/49/424 78/92/425 47/51/426
f 76/88/427 77/90/428 43/47/429
f 43/47/430 77/90/431 45/49/432
f 3/3/433 4/4/434 20/99/435
f 20/99/436 4/4/437 21/100/438
f 6/6/439 3/3/440 23/101/441
f 23/101/442 3/3/443 20/99/444
f 8/8/445 6/6/446 24/102/447
f 24/102/448 6/6/449 23/101/450
f 10/11/451 8/12/452 25/103/453
f 25/103/454 8/12/455 24/104/456
f 12/14/457 10/11/458 26/105/459
f 26/105/460 10/11/461 25/103/462
f 4/4/463 12/14/464 21/100/465
f 21/100/466 12/14/467 26/105/468
